<?xml version="1.0" standalone="no"?>
<!DOCTYPE svg PUBLIC "-//W3C//DTD SVG 20010904//EN"
 "http://www.w3.org/TR/2001/REC-SVG-20010904/DTD/svg10.dtd">
<svg version="1.0" xmlns="http://www.w3.org/2000/svg"
 width="512.000000pt" height="512.000000pt" viewBox="0 0 512.000000 512.000000"
 preserveAspectRatio="xMidYMid meet">

<g transform="translate(0.000000,512.000000) scale(0.100000,-0.100000)"
fill="#000000" stroke="none">
<path d="M663 4455 c-227 -62 -365 -270 -332 -501 25 -178 162 -327 340 -369
56 -13 295 -15 1889 -15 1992 0 1893 -2 2001 57 145 79 229 224 229 397 0 189
-107 345 -288 418 l-57 23 -1865 2 c-1582 2 -1873 0 -1917 -12z"/>
<path d="M680 2999 c-105 -21 -226 -105 -286 -201 -89 -141 -89 -336 1 -477
62 -99 181 -180 294 -201 74 -14 3668 -14 3742 0 113 21 232 102 294 201 90
141 90 337 0 478 -62 99 -181 180 -294 201 -68 13 -3686 12 -3751 -1z"/>
<path d="M673 1536 c-109 -27 -227 -111 -282 -201 -65 -108 -82 -265 -42 -381
52 -147 164 -249 318 -289 87 -23 3699 -23 3786 0 209 54 338 221 338 434 0
215 -147 396 -359 440 -81 17 -3689 14 -3759 -3z"/>
</g>
</svg>
